<?xml version="1.0" encoding="utf-8"?>
<!-- Generator: Adobe Illustrator 24.0.1, SVG Export Plug-In . SVG Version: 6.00 Build 0)  -->
<svg version="1.1" id="Layer_1" xmlns="http://www.w3.org/2000/svg" xmlns:xlink="http://www.w3.org/1999/xlink" x="0px" y="0px"
	 viewBox="0 0 1920 1080" style="enable-background:new 0 0 1920 1080;" xml:space="preserve">
<style type="text/css">
	.st0{fill-rule:evenodd;clip-rule:evenodd;fill:#FFFFFF;}
	.st1{fill-rule:evenodd;clip-rule:evenodd;}
</style>
<g>
	<polygon class="st0" points="863,444 1055.76,444 1055.76,636.76 863,636.76 863,444 	"/>
	<path class="st1" d="M1020.05,479.7c-16.89-16.7-37.08-25.05-60.77-25.05c-23.49,0-43.88,8.35-60.58,25.05
		c-16.5,16.7-25.05,37.09-25.05,60.58c0,23.69,8.55,43.88,25.05,60.77c16.7,16.7,37.08,25.05,60.58,25.05
		c23.69,0,43.88-8.35,60.77-25.05c16.7-16.89,25.05-37.08,25.05-60.77C1045.1,516.79,1036.75,496.4,1020.05,479.7L1020.05,479.7z
		 M997.92,487.47l10.68,10.68v19.8H988.4v-13.2h-14.95v29.7l6.41-6.21h17.86l10.87,10.68v40.58l-10.68,10.48h-33.98l-10.49-10.68
		v-80.97l10.29-10.87H997.92L997.92,487.47z M904.33,493.29c5.83-1.94,11.65-3.5,17.67-4.47l15.34-1.35v102.51h-20.19v-86.4h-12.81
		V493.29L904.33,493.29L904.33,493.29z"/>
	<polygon class="st1" points="988.4,545.72 973.45,545.72 973.45,572.7 988.4,572.7 988.4,545.72 	"/>
</g>
</svg>
