<?xml version="1.0" encoding="utf-8"?>
<!-- Generator: Adobe Illustrator 24.0.1, SVG Export Plug-In . SVG Version: 6.00 Build 0)  -->
<svg version="1.1" id="Layer_1" xmlns="http://www.w3.org/2000/svg" xmlns:xlink="http://www.w3.org/1999/xlink" x="0px" y="0px"
	 viewBox="0 0 1920 1080" style="enable-background:new 0 0 1920 1080;" xml:space="preserve">
<style type="text/css">
	.st0{fill-rule:evenodd;clip-rule:evenodd;fill:#FFFFFF;}
	.st1{fill-rule:evenodd;clip-rule:evenodd;}
</style>
<g>
	<polygon class="st0" points="863,444 1055.76,444 1055.76,636.76 863,636.76 863,444 	"/>
	<path class="st0" d="M1021.35,478.2c-16.88-17.08-37.74-25.63-61.98-25.63c-24.04,0-44.89,8.54-61.98,25.63
		c-17.09,17.08-25.63,37.74-25.63,61.98c0,24.24,8.54,44.89,25.63,62.18c17.08,17.28,37.94,25.82,61.98,25.82
		c24.23,0,44.7-8.54,61.98-25.82c17.09-17.29,25.63-37.94,25.63-62.18C1046.98,515.95,1038.44,495.29,1021.35,478.2L1021.35,478.2z"
		/>
	<path class="st1" d="M1046.98,540.18c0-24.23-8.54-44.89-25.63-61.98c-16.88-17.08-37.74-25.63-61.98-25.63
		c-24.04,0-44.89,8.54-61.98,25.63c-17.09,17.08-25.63,37.74-25.63,61.98c0,24.24,8.54,44.89,25.63,62.18
		c17.08,17.28,37.94,25.82,61.98,25.82c24.23,0,44.7-8.54,61.98-25.82C1038.44,585.07,1046.98,564.41,1046.98,540.18L1046.98,540.18
		z M969.71,471.25c0.99-0.99,1.99-1.19,2.78-0.8l1.79,2.38l2.78,31.78l39.93-4.17c0.8,0,1.79,0.4,2.58,1.19l0.2,1.39l-0.2,0.99
		l-22.64,36.15l31.19,23.24c0.79,0.59,1.19,1.39,1.19,1.99l-0.2,0.59c0,1.19-0.6,1.79-1.79,1.99l-30.19,8.14l-1.39,24.63l-0.79,1.79
		l-2.39,0.4l-16.89-7.35c-1.19-0.4-1.59-1.19-0.79-2.39c0-1.59,0.79-1.99,1.99-1.39l13.31,1.79v-19.07c0-2.78,0.99-4.37,2.98-4.77
		l17.08-6.36l-22.05-19.87c-0.6-0.59-0.99-1.59-0.99-2.38l0.39-1.39l13.71-26.42l-28.01-0.59c-0.99,0-1.99-0.4-2.38-0.79
		c-0.4,0-0.79-0.8-1.2-1.99l-3.57-21.85l-19.27,15.29c-1.59,1.99-3.38,2.19-5.76,0.6l-19.47-7.95l1.99,13.5v0.2
		c0,1.2-0.6,1.79-1.59,1.99c-1.39,0.4-1.99-0.2-2.38-1.39l-7.95-25.43c-0.4-0.79,0-1.59,1-2.38c0.99-0.6,1.79-0.6,2.78,0
		l28.01,15.29L969.71,471.25L969.71,471.25z M929.39,517.53l0.39-0.4c11.12-6.95,19.07-7.55,24.04-1.59
		c4.37,5.76,3.58,11.12-2.58,16.29l-12.12-9.34C936.34,520.31,933.16,518.72,929.39,517.53L929.39,517.53z M917.66,522.1
		c7.15-0.8,13.31,0.8,18.87,4.77c14.7,10.73,20.86,18.67,18.87,23.44c-0.8,1.79-1.99,2.98-4.17,3.58c-4.37,0.99-9.74,0.2-15.3-1.79
		c-5.36-1.99-10.53-4.77-15.29-8.74l-3.18,0.2c-0.6,0.99-0.4,2.19,0.2,3.58c2.98,2.98,7.95,5.96,14.7,8.94
		c0.4,3.97,1.19,6.56,2.18,7.94c3.58,5.76,8.94,7.95,15.89,6.76c-3.38,5.56-3.58,10.53-0.4,14.9c2.18,3.17,4.57,4.77,7.15,4.97
		l-5.36,4.17c-4.57,3.58-10.13,5.56-16.49,5.36c-5.96-0.2-10.53-1.99-13.71-5.36c-2.98-3.38-4.37-7.15-4.37-11.52
		c0-3.97,1.19-7.55,3.38-10.53c-3.97,1.19-7.75,0.99-11.72-0.2c-4.57-1.39-8.34-4.17-11.13-8.54c-2.98-4.37-4.17-9.14-4.37-14.5
		c-0.2-5.96,1.79-11.72,5.36-17.08C903.76,526.28,910.11,522.7,917.66,522.1L917.66,522.1z M946.86,566c-3.18,0-5.76-1.79-7.94-5.16
		l-1.59-2.98c5.76,1.99,11.12,2.39,15.69,1.39c3.97-0.79,6.36-2.78,7.75-6.36c2.19-4.97,0.2-10.92-6.36-17.88
		c8.54-5.56,15.29-4.77,20.06,2.19c4.77,6.75,0.79,14.3-11.13,22.45C956.2,564.21,950.84,566.4,946.86,566L946.86,566z
		 M963.35,564.41c9.54-6.56,16.29-6.75,20.06-0.99c3.78,5.76,1,11.92-8.54,18.67c-4.57,3.18-9.14,4.57-13.11,4.17
		c-3.38-0.4-5.56-1.59-7.15-3.57C950.44,576.93,953.22,570.97,963.35,564.41L963.35,564.41z"/>
</g>
</svg>
