<?xml version="1.0" encoding="utf-8"?>
<!-- Generator: Adobe Illustrator 24.0.1, SVG Export Plug-In . SVG Version: 6.00 Build 0)  -->
<svg version="1.1" id="Layer_1" xmlns="http://www.w3.org/2000/svg" xmlns:xlink="http://www.w3.org/1999/xlink" x="0px" y="0px"
	 viewBox="0 0 1920 1080" style="enable-background:new 0 0 1920 1080;" xml:space="preserve">
<style type="text/css">
	.st0{fill-rule:evenodd;clip-rule:evenodd;fill:#FFFFFF;}
	.st1{fill-rule:evenodd;clip-rule:evenodd;}
</style>
<g>
	<polygon class="st0" points="863,444 1055.76,444 1055.76,636.76 863,636.76 863,444 	"/>
	<path class="st0" d="M1047.5,540.18c0-24.35-8.58-45.11-25.75-62.27c-17.36-17.17-38.12-25.75-62.47-25.75
		c-24.15,0-44.91,8.58-62.27,25.75c-16.96,17.17-25.75,37.92-25.75,62.27c0,24.35,8.78,45.11,25.75,62.47
		c17.37,17.36,38.12,25.95,62.27,25.95c24.35,0,45.11-8.58,62.47-25.95C1038.92,585.29,1047.5,564.53,1047.5,540.18L1047.5,540.18z"
		/>
	<path class="st1" d="M1047.5,540.18c0-24.35-8.58-45.11-25.75-62.27c-17.36-17.17-38.12-25.75-62.47-25.75
		c-24.15,0-44.91,8.58-62.27,25.75c-16.96,17.17-25.75,37.92-25.75,62.27c0,24.35,8.78,45.11,25.75,62.47
		c17.37,17.36,38.12,25.95,62.27,25.95c24.35,0,45.11-8.58,62.47-25.95C1038.92,585.29,1047.5,564.53,1047.5,540.18L1047.5,540.18z
		 M965.26,485.29c1.4-2.4,3.4-3.6,5.79-3.39c5.39,0.2,10.78,8.58,15.97,24.75l5.79,19.76c0.8,4.39,1,7.98,0.4,11.18
		c-0.6,3.19-2.8,5.99-6.19,8.58c-3.2,2.39-6.39,3.79-9.58,3.99c-3.6,0.4-6.19-0.2-8.18-2c-2.19-1.6-2.99-4.39-2.6-8.18
		c0-1.99,1.2-3.99,2.99-6.19l5.39-5.79c4.59-4.99,5.99-10.18,3.99-15.77c-2-5.99-4.59-10.18-7.98-12.38l-3.79-2.79
		c-1.2-1.2-2.19-2.79-2.79-4.59C963.67,490.08,964.07,487.88,965.26,485.29L965.26,485.29z M1011.97,534.79
		c-1.6-0.2-2.6-2-2.99-5.59c-0.6-3.99-0.2-6.79,1.39-8.78c1.4-1.8,3-2.39,4.99-1.6c2,0.6,3,2.2,2.59,4.59c0,2-0.8,4.39-2.2,7.18
		C1014.37,533.39,1012.97,534.79,1011.97,534.79L1011.97,534.79z M1023.35,538.78c-1.2-0.8-1.2-2-0.4-3.2h-3.39
		c-0.4-0.4-0.8-1.59-0.6-3.19c0.2-2,0.4-3.59,1.2-4.79c0.8-1.59,2.2-2,3.79-1.2c1.4,0.6,2.19,1.99,1.79,3.99
		c1.2-0.6,2.2-0.4,3.2,1.2c1,1.4,1,2.79,0,3.99c1.19-0.4,2.19,0,2.79,1.6c0.6,1.4,0.2,2.99-1,4.39c-0.8,0.8-1.8,1.2-2.8,1.2
		c-1,0-1.4-0.4-1.8-0.8c-0.8-0.8-0.8-2,0.2-3.39L1023.35,538.78L1023.35,538.78z M1023.35,543.77c2,2.59,2.79,5.19,2.59,7.98
		c-0.2,6.78-3.79,15.17-10.78,25.75c-8.39,12.58-14.77,18.37-19.56,17.37c-2.39-0.6-3.59-2-4.19-4.39c-0.8-2.19-0.4-4.19,0.8-6.18
		c1-1.4,2.4-2.39,3.79-2.79l4.39-0.8c4.39-0.6,7.98-3.2,10.97-7.59c3-4.19,2.6-9.38-1-15.37l-3.99-6.78c-1.2-2.6-1.79-4.59-1.6-6.19
		c1.2-6.39,5.19-8.38,11.58-6.19C1019.16,539.78,1021.55,541.57,1023.35,543.77L1023.35,543.77z M989.02,552.15
		c-0.6-2-0.4-3.39,0.8-4.39c0.4-0.4,1.2-0.4,1.99,0c1.2,0.4,2.2,1.4,2.99,2.59c1.2,2.2,1.2,4.19,0,5.79c-1,1.79-2.2,1.99-3.39,0.6
		c0.8,2,0.4,3.79-1.2,5.19l-3.99,0.2c0,2.59-1,3.99-2.99,4.19c-1.8,0.2-3.19-0.8-3.79-3.19c-0.8-1.6-0.8-3.59-0.4-5.99
		c0.4-2.2,0.8-3.59,1.6-3.99c1.59-0.6,2.79,0,3.99,1.8c-0.8-2.2-0.4-3.6,0.8-3.99C987.02,550.16,988.22,550.56,989.02,552.15
		L989.02,552.15z M966.66,568.32c-1-2.6-0.6-5.99,1.2-9.78c1.6-3.99,3.4-5.58,5.19-5.39c1,0.2,2,2,2.79,5.59
		c0.8,3.39,1.2,6.19,0.8,8.38c-0.4,2.59-2,4.19-4.59,4.39C969.46,571.91,967.46,570.92,966.66,568.32L966.66,568.32z M900,523.41
		c-0.2-2.39,0.8-3.99,2.8-4.59c2-0.8,3.59-0.2,5.19,1.6c1.4,2,1.8,4.79,1.2,8.78c-0.6,3.59-1.4,5.39-2.99,5.59
		c-0.8,0-2-1.2-3.79-4.19C901,527.8,900.2,525.41,900,523.41L900,523.41z M886.23,537.18c0.8-1.6,1.6-1.99,3.19-1.6
		c-1-1.2-1-2.59,0-3.99c0.8-1.59,2-1.79,3.19-1.2c-0.4-2,0-3.39,1.6-3.99c1.6-0.8,2.79-0.4,3.79,1.2c0.8,1.2,1.2,2.79,1.4,4.79
		c0,1.6-0.2,2.8-0.8,3.19h-3.19c0.4,1.4,0.4,2.6-0.4,3.2l-3.39-0.2c1,1.2,1.2,2.4,0.6,3.39c-0.4,0.4-1,0.8-1.99,0.8
		c-1,0-2-0.4-2.6-1.2C886.23,540.18,885.83,538.78,886.23,537.18L886.23,537.18z M954.09,492.47c-0.8,1.8-1.8,3.39-2.99,4.59
		l-3.59,2.79c-3.39,2.2-6.19,6.39-8.18,12.38c-1.8,5.59-0.6,10.78,3.99,15.77l5.39,5.79c1.8,2.2,2.79,4.19,2.99,6.19
		c0.4,3.79-0.4,6.58-2.59,8.18c-2,1.8-4.59,2.39-8.38,2c-2.99-0.2-6.19-1.6-9.38-3.99c-3.39-2.6-5.39-5.59-6.19-8.58
		c-0.6-3.19-0.4-6.99,0.4-11.18l5.79-19.76c5.19-16.17,10.58-24.55,15.97-24.75c2.59-0.2,4.39,1,5.79,3.39
		C954.49,487.88,954.69,490.08,954.09,492.47L954.09,492.47z M933.93,554.95c1.2-1.8,2.59-2.4,3.79-1.8c1,0.4,1.4,1.8,1.8,3.99
		c0.4,2.39,0.2,4.39-0.2,5.99c-0.6,2.39-2.2,3.39-4.19,3.19c-2-0.2-2.79-1.6-2.79-4.19l-3.99-0.2c-1.6-1.4-2-3.19-1.2-5.19
		c-1.4,1.4-2.6,1.2-3.59-0.6c-1-1.6-0.8-3.59,0.4-5.79l2.79-2.59c1-0.4,1.6-0.4,2,0c1.2,0.8,1.4,2.39,0.6,4.39c1-1.4,2.2-2,3.39-1.2
		C934.33,551.55,934.73,552.95,933.93,554.95L933.93,554.95z M941.91,567.12c-0.4-2-0.2-4.79,0.6-8.38c1-3.59,2-5.39,2.99-5.59
		c1.8-0.2,3.39,1.4,4.99,5.39c1.8,3.99,2.2,7.19,1.2,9.78c-1,2.6-2.79,3.59-5.19,3.19C943.91,571.31,942.31,569.72,941.91,567.12
		L941.91,567.12z M913.37,544.77c0.2,1.6-0.2,3.59-1.6,6.19l-3.99,6.78c-3.59,5.99-3.79,11.18-0.8,15.37
		c2.99,4.39,6.59,6.99,10.58,7.59l4.39,0.8c1.6,0.4,2.79,1.4,3.99,2.79c1.2,2,1.6,3.99,0.8,6.18c-0.6,2.4-2,3.79-4.39,4.39
		c-4.59,1-10.98-4.79-19.36-17.37c-6.99-10.98-10.78-19.56-10.78-25.75c-0.2-2.79,0.8-5.39,2.59-7.98c1.8-2.2,3.99-3.99,6.59-5.19
		C908.58,536.19,912.37,538.18,913.37,544.77L913.37,544.77z"/>
</g>
</svg>
