<?xml version="1.0" encoding="utf-8"?>
<!-- Generator: Adobe Illustrator 24.0.1, SVG Export Plug-In . SVG Version: 6.00 Build 0)  -->
<svg version="1.1" id="Layer_1" xmlns="http://www.w3.org/2000/svg" xmlns:xlink="http://www.w3.org/1999/xlink" x="0px" y="0px"
	 viewBox="0 0 1920 1080" style="enable-background:new 0 0 1920 1080;" xml:space="preserve">
<style type="text/css">
	.st0{fill-rule:evenodd;clip-rule:evenodd;fill:#FFFFFF;}
	.st1{fill-rule:evenodd;clip-rule:evenodd;}
</style>
<g>
	<polygon class="st0" points="863,444 1055.76,444 1055.76,636.76 863,636.76 863,444 	"/>
	<path class="st1" d="M1047.08,540.37c0-24.23-8.54-45.09-25.63-62.18c-17.08-17.09-37.74-25.62-61.98-25.62
		c-24.24,0-44.89,8.54-62.18,25.62c-17.08,17.09-25.63,37.95-25.63,62.18c0,24.04,8.54,44.9,25.63,61.98
		c17.28,17.28,37.94,25.82,62.18,25.82c24.23,0,44.89-8.54,61.98-25.82C1038.54,585.27,1047.08,564.41,1047.08,540.37
		L1047.08,540.37z M1003.78,516.14c-0.4,3.77-2.38,8.54-5.76,14.5c-3.78,6.56-7.15,10.53-10.53,11.92
		c-2.59,1.19-8.54,2.98-18.48,5.37c9.34,0.99,15.1,0.99,17.08,0l9.74-3.58c5.16-2.19,8.34-3.78,9.34-4.97l10.53-17.28
		c5.96-9.93,9.53-14.7,10.73-14.1c3.77,2.19,2.98,8.34-2.19,18.67c-4.57,9.14-8.94,15.3-12.71,18.67
		c-0.99,0.99-4.97,2.39-11.52,4.37l-12.51,3.57l-19.67-1.59c20.46,5.96,32.18,10.53,35.36,13.7c2.98,2.58,5.76,7.75,8.34,14.7
		c2.58,7.95,2.19,12.52-1.39,13.51c-1.39,0.39-3.58-3.18-6.95-10.93l-5.76-13.71c-0.39-0.6-4.57-2.78-12.52-6.16l-17.88-7.55
		l9.53,6.36c1.99,1.59,3.97,4.77,6.36,10.33c2.18,4.97,3.18,8.94,2.98,11.32c-0.2,3.38-2.39,9.14-6.55,17.08
		c-4.57,8.74-7.95,12.12-9.94,10.13c-0.79-0.79,0.4-5.76,3.58-14.5l5.36-15.1c0.39-0.99-0.2-3.58-1.79-7.75
		c-1.39-3.97-2.78-6.56-3.57-7.55l-4.97-4.37c-2.19-1.79-3.38-1.79-3.38-0.59v3.77c0,1.19-0.6,1.79-1.79,1.79
		c-1.19,0-1.79-0.6-1.79-1.79v-3.97c0-0.79-0.59-1.19-1.79-1.19s-1.79,0.4-1.79,1.39v3.77c0,1.19-0.6,1.79-1.79,1.79
		c-1.19,0-1.99-0.6-1.99-1.79v-3.77c0-1.19-0.99-1.19-3.18,0.59l-4.77,4.37c-0.99,0.79-2.19,3.58-3.78,7.55
		c-1.39,4.17-2.19,6.75-1.99,7.75l5.56,15.1c2.98,8.74,4.37,13.71,3.77,14.5c-1.99,1.99-5.36-1.39-9.93-10.13
		c-4.37-7.94-6.56-13.7-6.75-17.08c-0.2-2.38,0.8-6.35,2.98-11.32c2.38-5.56,4.37-8.74,6.55-10.33l9.34-6.36l-17.88,7.55
		c-7.95,3.38-12.12,5.56-12.71,6.16l-5.56,13.71c-3.18,7.74-5.36,11.32-6.95,10.93c-3.58-0.99-3.97-5.56-1.19-13.51
		c2.39-6.95,5.16-12.12,8.14-14.7c3.38-3.18,15.1-7.75,35.36-13.7l-19.67,1.59l-12.52-3.57c-6.75-1.99-10.53-3.38-11.52-4.37
		c-3.97-3.38-8.14-9.54-12.72-18.67c-5.36-10.33-6.16-16.49-2.19-18.67c1-0.6,4.77,4.17,10.73,14.1l10.33,17.28
		c0.99,1.19,4.17,2.78,9.34,4.97l10.13,3.58c1.99,0.99,7.75,0.99,17.08,0l-18.67-5.37c-3.38-1.39-6.75-5.36-10.53-11.92
		c-3.38-6.16-5.17-10.93-5.56-14.5c0-1.79,0.8-5.37,2.38-11.33l6.56-18.08c6.75-16.29,12.12-23.64,16.29-22.44
		c1.59,0.4-0.59,8.94-6.16,25.62l-9.14,27.02c0,1.39,1.19,4.77,3.97,10.33c2.78,5.56,4.77,8.94,6.36,9.93l18.08,5.96l-7.55-7.35
		c-4.37-4.57-6.56-8.14-6.56-10.93c0-6.55,2.59-14.1,7.35-22.64c4.97-8.15,9.14-12.32,12.71-12.32c3.58,0,7.75,4.17,12.51,12.32
		c4.97,8.54,7.55,16.09,7.55,22.64c0,2.78-2.39,6.36-6.76,10.93l-7.35,7.35l18.08-5.96c1.59-0.99,3.57-4.37,6.36-9.93
		c2.78-5.36,4.17-8.94,3.97-10.33l-9.14-27.02c-5.76-16.68-7.75-25.23-6.36-25.62c4.37-1.19,9.93,6.16,16.49,22.44l6.56,18.08
		C1002.98,510.78,1003.78,514.36,1003.78,516.14L1003.78,516.14z"/>
</g>
</svg>
