<?xml version="1.0" encoding="utf-8"?>
<!-- Generator: Adobe Illustrator 24.0.1, SVG Export Plug-In . SVG Version: 6.00 Build 0)  -->
<svg version="1.1" id="Layer_1" xmlns="http://www.w3.org/2000/svg" xmlns:xlink="http://www.w3.org/1999/xlink" x="0px" y="0px"
	 viewBox="0 0 1920 1080" style="enable-background:new 0 0 1920 1080;" xml:space="preserve">
<style type="text/css">
	.st0{fill-rule:evenodd;clip-rule:evenodd;fill:#FFFFFF;}
	.st1{fill-rule:evenodd;clip-rule:evenodd;}
</style>
<g>
	<polygon class="st0" points="863,444 1055.76,444 1055.76,636.76 863,636.76 863,444 	"/>
	<path class="st0" d="M1047.7,540.28c0-24.38-8.59-45.36-25.78-62.34c-17.38-17.19-38.17-25.77-62.55-25.77
		c-24.38,0-45.16,8.59-62.34,25.77c-17.18,16.99-25.98,37.97-25.98,62.34c0,24.38,8.79,45.16,25.98,62.55
		c17.18,17.18,37.97,25.77,62.34,25.77c24.38,0,45.16-8.59,62.55-25.77C1039.1,585.44,1047.7,564.65,1047.7,540.28L1047.7,540.28z"
		/>
	<path class="st1" d="M1047.7,540.28c0-24.38-8.59-45.36-25.78-62.34c-17.38-17.19-38.17-25.77-62.55-25.77
		c-24.38,0-45.16,8.59-62.34,25.77c-17.18,16.99-25.98,37.97-25.98,62.34c0,24.38,8.79,45.16,25.98,62.55
		c17.18,17.18,37.97,25.77,62.34,25.77c24.38,0,45.16-8.59,62.55-25.77C1039.1,585.44,1047.7,564.65,1047.7,540.28L1047.7,540.28z
		 M1002.94,486.52c4.8,2.8,6.99,7.8,6.59,14.79c-0.2,6.19-2,11.99-5.59,17.38c-2.4,4-5.6,7.6-9.39,10.59c-3,2.4-4.6,4-4.6,4.59
		c-0.2,1,0.4,2,1.8,3.2l3.79,3.19c3.4,3,4.2,6.79,2.2,11.39c-4,9.39-5.2,19.18-4.4,29.38l3.6,15.38c1,4.8,1,7.59-0.6,8.19
		c-1.8,0.6-5-4-10.39-14.39c-5.19-11.19-8.99-16.79-10.59-17.39c-2-0.4-2.59,5.99-1.8,19.38c0.6,13.79,0,20.58-1.6,20.38
		c-1.8-0.2-3.6-3.39-6-9.39c-2.2-6-4-12.99-4.99-20.98c-3.4-20.78-1.6-34.97,5.2-42.36c2.2-2.6,5.2-4,8.79-4.4
		c3.4-0.4,5.39-1.2,6.19-2.4c0.6-1,0.4-2-0.4-2.8l-2.8-2.6c-3.2-2.8-4-6.19-2.6-10.59c3.4,4.59,7,7.39,10.59,7.99
		c3.2,0.8,6-0.6,8.39-3.6c3.4-4.59,3.6-9.79,1.2-15.38c-2.8-6.6-8.59-9.6-16.79-9.19c1.2-5.4,4.8-9.19,9.59-11.39
		C993.34,483.33,998.14,483.73,1002.94,486.52L1002.94,486.52z M964.77,493.92c3.59,3.6,4.59,5.4,3,5.4c-0.6,0-2.2-0.8-5.2-2.8
		c-2.79-1.6-4.8-2.6-5.59-2.6l-7.19,5.4c-4.4,3.6-7.2,5-8.99,4.6c-1.4-0.4-2.8-3.4-4.2-9.39c-1.6-5.59-2.6-8.79-3.79-8.99
		c-1.2-0.2-4.4,1.2-9.39,4.2c-3.79,2.2-6.19,1.6-6.99-1.8c-1.4-4.2,1.2-7.2,6.99-9.19c5.4-1.8,9.59-2,12.99-0.4
		c1.2,0.8,2.6,3.8,4,9.39c1.4,5.4,2.4,8.4,3,8.4c1,0.4,3.4-0.8,7.2-3.4c3.79-2.8,5.99-4.19,6.99-4.19
		C958.58,488.52,960.97,490.32,964.77,493.92L964.77,493.92z M968.17,508.51l11.39,0.4c0.2,1-3.2,2.4-9.99,4l-11.79,3.4l-3.99,10.39
		c-2,6.39-4.2,9.99-6.4,10.59c-2,0.6-6.19-2-12.39-7.99c-6.6-6.19-9.99-9.19-10.59-9.19c-0.6,0.2-1.4,1.6-2.4,4.59l-2.8,9.79
		c-3,9.79-6.39,15.59-9.79,17.58l-7,0.6c-1.8-0.6-2.8-2.2-3.4-4.2c-0.4-1.8-0.2-3.6,0.8-5.39c1-1.8,2.8-2.8,5.2-3.2
		c2.6-0.4,5.39-5.2,8.39-13.99c3.4-9.39,6.2-14.39,8.4-14.99c2-0.8,6.59,2,13.19,8.39c6.79,6.39,10.39,9.39,10.79,9.39
		c1-0.4,2.4-3.4,4.2-8.59c2-5.6,3.6-8.4,4.6-9.19C956.38,510.11,960.97,509.3,968.17,508.51L968.17,508.51z"/>
</g>
</svg>
