<svg version="1.1" id="Layer_1" xmlns="http://www.w3.org/2000/svg" xmlns:xlink="http://www.w3.org/1999/xlink" x="0px" y="0px"
	 viewBox="0 0 1920 1080" style="enable-background:new 0 0 1920 1080;" xml:space="preserve">
<style type="text/css">
	.st0{fill-rule:evenodd;clip-rule:evenodd;fill:#FFFFFF;}
	.st1{fill-rule:evenodd;clip-rule:evenodd;}
</style>
<g>
	<polygon class="st0" points="863,444 1055.76,444 1055.76,636.76 863,636.76 863,444 	"/>
	<path class="st1" d="M874.34,540.39c0-47.08,38.05-84.98,85.13-84.98c46.89,0,84.95,37.9,84.95,84.98
		c0,46.86-38.05,84.95-84.95,84.95C912.39,625.34,874.34,587.25,874.34,540.39L874.34,540.39L874.34,540.39z M940.26,498.61v28.49
		l5.92,6.05l-5.92,6.17v39.46l10.56,10.78h33.51l10.56-10.41v-40.22l-5.83-5.74l5.83-5.74v-29.25l-10.56-10.38h-33.7L940.26,498.61
		L940.26,498.61L940.26,498.61z M895.31,493.85v9.87H908v85.86h19.9V487.86h-15.52L895.31,493.85L895.31,493.85L895.31,493.85z
		 M1001.57,520.58h11.38v11.35h9.87v-11.35h11.35v-9.91h-11.35v-11.35h-9.87v11.35h-11.38V520.58L1001.57,520.58L1001.57,520.58z
		 M960.35,545.66h14.79v26.64h-14.79V545.66L960.35,545.66z M960.35,504.94h14.79v23.63h-14.79V504.94L960.35,504.94z"/>
	<polygon class="st0" points="908,589.57 908,503.72 895.31,503.72 895.31,493.85 912.39,487.86 927.91,487.86 927.91,589.57 
		908,589.57 	"/>
	<path class="st0" d="M950.82,589.57l-10.56-10.78v-39.46l5.92-6.17l-5.92-6.05v-28.49l10.38-10.75h33.7l10.56,10.38v29.25
		l-5.83,5.74l5.83,5.74v40.22l-10.56,10.41H950.82L950.82,589.57L950.82,589.57z M960.35,572.3h14.79v-26.64h-14.79V572.3
		L960.35,572.3z M960.35,528.58h14.79v-23.63h-14.79V528.58L960.35,528.58z"/>
	<polygon class="st0" points="1012.95,531.93 1012.95,520.58 1001.57,520.58 1001.57,510.68 1012.95,510.68 1012.95,499.33 
		1022.82,499.33 1022.82,510.68 1034.17,510.68 1034.17,520.58 1022.82,520.58 1022.82,531.93 1012.95,531.93 	"/>
</g>
</svg>
