<?xml version="1.0" encoding="utf-8"?>
<!-- Generator: Adobe Illustrator 24.0.1, SVG Export Plug-In . SVG Version: 6.00 Build 0)  -->
<svg version="1.1" id="Layer_1" xmlns="http://www.w3.org/2000/svg" xmlns:xlink="http://www.w3.org/1999/xlink" x="0px" y="0px"
	 viewBox="0 0 1920 1080" style="enable-background:new 0 0 1920 1080;" xml:space="preserve">
<style type="text/css">
	.st0{fill-rule:evenodd;clip-rule:evenodd;fill:#FFFFFF;}
	.st1{fill-rule:evenodd;clip-rule:evenodd;}
</style>
<g>
	<polygon class="st0" points="863,444 1055.76,444 1055.76,636.76 863,636.76 863,444 	"/>
	<path class="st1" d="M1021.53,478.23c-17.3-17.11-37.99-25.65-62.25-25.65c-24.07,0-44.95,8.55-62.05,25.65
		c-17.1,17.11-25.66,37.99-25.66,62.05c0,24.26,8.55,44.95,25.66,62.25c17.1,17.1,37.98,25.65,62.05,25.65
		c24.26,0,44.95-8.55,62.25-25.65c17.1-17.3,25.66-37.99,25.66-62.25C1047.18,516.22,1038.63,495.33,1021.53,478.23L1021.53,478.23z
		 M993.48,495.13l-4.58,11.14c-1.99,4.37-3.18,7.16-3.38,8.55c-0.2,1.79,0.2,3.18,1.39,4.18l4.38,2.59
		c4.57,2.78,7.36,7.56,8.15,14.91l0.39,6.36l4.77-1.39c1.19-0.6,1.99-1.59,1.99-3.38l-2.39-19.09c-0.2-8.75,3.58-12.93,11.53-12.73
		c8.16,0.39,10.54,5.37,7.36,14.91l-4.97,11.34c-2.19,4.37-3.38,6.96-3.58,8.15c0,1.19,0.4,2.39,1.59,3.18l3.98,1.99
		c4.18,2.19,6.16,5.77,6.16,10.74c0,6.96-2.79,14.92-8.35,23.87c-4.97,7.95-10.54,14.52-16.7,19.29
		c-4.97,3.78-11.74,6.76-20.88,8.55c4.17-9.54,6.56-21.08,7.36-33.81c0.8-15.71-1.99-26.05-8.55-31.22
		c-2.78-1.99-5.76-2.59-8.95-1.79l-2.98,0.6c-0.79,0-1.19-0.4-1.59-1.39l-7.16-18.3c-4.38-7.16-9.15-7.56-14.52-1.19
		c-5.57,6.36-4.57,12.33,2.98,17.5l13.13,7.56c0,0.79-0.4,1.59-1.19,2.59l-2.38,2.98c-1.99,2.98-1.59,7.16,0.59,12.13
		c3.58,7.76,4.38,16.51,2.39,26.85l-5.37,19.49c-12.33-0.59-22.87-3.38-31.22-8.55c-5.57-3.39-11.34-9.15-16.71-17.5
		c-6.16-9.55-9.35-18.3-9.35-26.65c0-9.15,2.19-14.91,6.36-18.1l4.37-2.38c0.99-0.8,1.79-1.99,1.59-3.19c0-1.79-1.19-4.77-3.58-8.95
		l-5.17-10.74c-3.58-8.75-1.19-13.52,7.16-14.72c8.15-1.19,12.13,2.79,11.73,11.73l-1.39,11.34c-0.79,4.38-0.99,7.36-0.79,8.95
		c0.2,1.39,1.39,1.59,3.78,0.99l5.97-1.19l0.2-11.14c1.39-4.77,4.38-8.55,8.95-10.74l4.18-2.39c1.19-0.79,1.59-1.79,1.59-3.19
		l-2.98-7.75c-1.99-4.77-3.38-8.55-3.98-11.34c-2.59-9.74,0.59-14.52,9.74-14.52c8.55,0,12.33,4.57,11.14,13.52l-4.78,19.29
		c0,1.59,0.8,2.79,2.39,3.58l4.97,1.99c5.37,1.79,8.35,5.37,9.54,10.74l5.77-1.79c1.79-0.59,2.99-1.39,3.18-2.58
		c0.4-1.59,0-4.97-1.19-9.94l-2.78-12.53c-1.39-10.34,2.78-14.72,12.53-13.33C993.88,480.62,996.67,485.78,993.48,495.13
		L993.48,495.13z M967.43,595.37c2.99-6.16,5.37-9.35,6.76-9.74c1.59-0.4,1.99,2.39,1.59,8.35l-1.19,15.31l-14.92,1.19
		L967.43,595.37L967.43,595.37z"/>
</g>
</svg>
