<svg version="1.1" id="Layer_1" xmlns="http://www.w3.org/2000/svg" xmlns:xlink="http://www.w3.org/1999/xlink" x="0px" y="0px"
	 viewBox="0 0 1920 1080" style="enable-background:new 0 0 1920 1080;" xml:space="preserve">
<style type="text/css">
	.st0{fill-rule:evenodd;clip-rule:evenodd;fill:#FFFFFF;}
	.st1{fill-rule:evenodd;clip-rule:evenodd;}
</style>
<g>
	<polygon class="st0" points="863,444 1055.76,444 1055.76,636.76 863,636.76 863,444 	"/>
	<path class="st1" d="M1022.11,477.64c-17.46-17.26-38.34-25.9-62.83-25.9c-24.29,0-45.37,8.63-62.64,25.9
		c-17.27,17.27-25.9,38.34-25.9,62.63c0,24.49,8.63,45.37,25.9,62.84c17.26,17.27,38.34,25.9,62.64,25.9
		c24.49,0,45.37-8.63,62.83-25.9c17.27-17.46,25.9-38.34,25.9-62.84C1048.01,515.99,1039.38,494.91,1022.11,477.64L1022.11,477.64z
		 M989.39,503.54h-15.26v14.25h-20.88v-21.08l10.84-11.04h35.33l10.84,11.04v37.14l-36.14,30.31v9.04h35.93v18.67h-56.81v-37.34
		l36.14-30.32V503.54L989.39,503.54z M920.53,487.28l16.26-1.6v106.2h-20.88v-89.54h-13.25v-10.24L920.53,487.28L920.53,487.28z"/>
</g>
</svg>
