<?xml version="1.0" encoding="utf-8"?>
<!-- Generator: Adobe Illustrator 24.0.1, SVG Export Plug-In . SVG Version: 6.00 Build 0)  -->
<svg version="1.1" id="Layer_1" xmlns="http://www.w3.org/2000/svg" xmlns:xlink="http://www.w3.org/1999/xlink" x="0px" y="0px"
	 viewBox="0 0 1920 1080" style="enable-background:new 0 0 1920 1080;" xml:space="preserve">
<style type="text/css">
	.st0{fill-rule:evenodd;clip-rule:evenodd;fill:#FFFFFF;}
	.st1{fill-rule:evenodd;clip-rule:evenodd;}
</style>
<g>
	<polygon class="st0" points="863,444 1055.76,444 1055.76,636.76 863,636.76 863,444 	"/>
	<path class="st0" d="M910.76,491.16c-13.25,13.55-20.17,29.5-20.17,48.47c0,18.96,6.92,35.22,20.17,48.47
		c13.24,13.55,29.5,20.17,48.47,20.17c18.96,0,35.22-6.62,48.47-20.17c13.55-13.24,20.17-29.5,20.17-48.47
		c0-18.96-6.62-34.92-20.17-48.47c-13.25-13.24-29.5-20.17-48.47-19.87C940.26,470.99,924.01,477.92,910.76,491.16L910.76,491.16z"
		/>
	<path class="st1" d="M1019.43,480.32c-15.95-16.26-35.82-24.38-59.6-24.98c-24.08,0.6-44.25,8.73-60.21,24.98
		c-15.95,15.95-24.38,35.82-24.98,59.9c0.6,24.08,9.03,44.25,24.98,60.21c15.96,15.95,36.12,24.08,60.21,24.98
		c23.78-0.9,43.65-9.03,59.6-24.98c16.26-15.95,24.38-36.12,24.68-60.21C1043.82,516.15,1035.69,496.28,1019.43,480.32
		L1019.43,480.32z M987.82,498.99v20.17h-20.47v-13.55H952v30.4l6.32-5.72h18.36l11.14,10.23v41.54l-10.84,10.84h-34.62
		l-11.14-10.84v-83.08l10.84-11.14h34.92L987.82,498.99L987.82,498.99z"/>
	<polygon class="st1" points="967.35,575.45 967.35,547.45 952,547.45 952,575.45 967.35,575.45 	"/>
</g>
</svg>
