<?xml version="1.0" encoding="utf-8"?>
<!-- Generator: Adobe Illustrator 24.0.1, SVG Export Plug-In . SVG Version: 6.00 Build 0)  -->
<svg version="1.1" id="Layer_1" xmlns="http://www.w3.org/2000/svg" xmlns:xlink="http://www.w3.org/1999/xlink" x="0px" y="0px"
	 viewBox="0 0 1920 1080" style="enable-background:new 0 0 1920 1080;" xml:space="preserve">
<style type="text/css">
	.st0{fill-rule:evenodd;clip-rule:evenodd;fill:#FFFFFF;}
	.st1{fill-rule:evenodd;clip-rule:evenodd;}
</style>
<g>
	<polygon class="st0" points="863,444 1055.76,444 1055.76,636.76 863,636.76 863,444 	"/>
	<path class="st0" d="M1047.91,540.18c0-24.46-8.62-45.32-25.87-62.57c-17.44-17.25-38.3-25.87-62.76-25.87
		c-24.27,0-45.32,8.62-62.57,25.87c-17.05,17.25-25.87,38.1-25.87,62.57c0,24.46,8.82,45.52,25.87,62.77
		c17.25,17.45,38.3,26.07,62.57,26.07c24.46,0,45.32-8.62,62.76-26.07C1039.29,585.5,1047.91,564.64,1047.91,540.18L1047.91,540.18z
		"/>
	<path class="st1" d="M1047.91,540.18c0-24.46-8.62-45.32-25.87-62.57c-17.44-17.25-38.3-25.87-62.76-25.87
		c-24.27,0-45.32,8.62-62.57,25.87c-17.25,17.25-25.87,38.1-25.87,62.57c0,24.46,8.62,45.32,25.87,62.77
		c17.25,17.45,38.3,26.07,62.57,26.07c24.46,0,45.32-8.62,62.76-26.07C1039.29,585.5,1047.91,564.64,1047.91,540.18L1047.91,540.18z
		 M991.37,477.41c4.01,2,8.42,5.01,13.23,8.82c4.81,4.01,8.42,7.62,11.03,11.03c3.01,4.01,3.81,6.62,2.41,8.02
		c-1.4,1.61-4.81,1.2-10.43-0.8l-10.63-3.81l-3.61,2.21c-1.2,1.6-1.81,3.21-1.81,4.61c0,0.8,1.2,2.61,3.81,5.42l8.42,8.62
		c7.82,8.22,10.83,13.64,9.02,16.04c-1.2,1.6-4.81,0.8-11.03-2.41c-6.62-3.61-10.63-4.62-12.43-3.21l-17.25,20.25
		c-10.03,12.43-16.44,19.65-19.25,22.06c-2.81,2.41-6.02,3.61-9.02,3.81l-6.41-0.6c-0.4,0-2,1-5.21,2.81l-7.22-0.2l-17.84,15.24
		l13.43-18.25c-1.6-1.81-2.4-3.81-1.6-6.01l2.61-7.02c0.2-0.4,0.2-2.41,0.2-6.02c0-2.8,0.6-5.61,2.01-8.22l17.85-20.85
		c10.43-11.63,15.84-18.25,16.44-19.65c0.6-1.61-1-5.21-4.61-11.63c-3.41-5.61-4.41-9.02-3.01-10.03c1.81-1.41,7.42,0.6,17.05,5.61
		c10.42,5.42,15.84,8.02,16.24,8.02c3.01,0,5.01-1.6,6.22-4.61c0.2-0.8-1.4-4.01-4.81-10.23c-3.21-5.82-4.01-9.42-2.61-10.63
		C983.94,474.6,986.95,475,991.37,477.41L991.37,477.41z"/>
	<path class="st1" d="M961.48,520.12l7.62,4.61c2.81,1.81,4.41,2.21,5.22,1.21c1.2-1.81,0.8-3.81-0.8-5.82
		c-2.01-2.2-5.62-3.61-10.23-4.01c-2.81-0.2-4.61,0-5.22,0.8C957.67,517.92,958.87,518.92,961.48,520.12L961.48,520.12z"/>
	<path class="st1" d="M963.69,542.38c1.4-2.21,0.8-4.61-1.6-7.22c-2.81-3.01-6.82-4.62-12.03-4.81c-3.61,0-5.62,0.4-6.22,1.6
		c-0.4,1.2,1,2.21,4.62,3.21c2.2,0.8,5.61,2.61,9.62,5.61C961.08,542.98,962.89,543.58,963.69,542.38L963.69,542.38z"/>
	<path class="st1" d="M939.63,546.39c-2.61-0.6-5.01-0.2-6.41,1c-1.61,1.2-1,2.21,2,2.61c2.01,0.2,4.61,1.8,8.22,4.61
		c2.81,2.41,4.61,3.01,5.21,2c1.2-1.6,1-3.41-0.6-5.61C946.45,548.6,943.64,546.99,939.63,546.39L939.63,546.39z"/>
</g>
</svg>
