<?xml version="1.0" encoding="utf-8"?>
<!-- Generator: Adobe Illustrator 24.0.1, SVG Export Plug-In . SVG Version: 6.00 Build 0)  -->
<svg version="1.1" id="Layer_1" xmlns="http://www.w3.org/2000/svg" xmlns:xlink="http://www.w3.org/1999/xlink" x="0px" y="0px"
	 viewBox="0 0 1920 1080" style="enable-background:new 0 0 1920 1080;" xml:space="preserve">
<style type="text/css">
	.st0{fill-rule:evenodd;clip-rule:evenodd;fill:#FFFFFF;}
	.st1{fill-rule:evenodd;clip-rule:evenodd;}
</style>
<g>
	<polygon class="st0" points="863,444 1055.76,444 1055.76,636.76 863,636.76 863,444 	"/>
	<path class="st1" d="M1045.32,540.38c0-23.81-8.32-44.13-24.97-60.78c-16.84-16.84-37.17-25.36-60.98-25.36
		c-23.81,0-43.94,8.52-60.78,25.36c-16.84,16.65-25.17,36.97-25.17,60.78c0,23.81,8.33,44.14,25.17,60.98
		c16.84,16.84,36.97,25.16,60.78,25.16c23.81,0,44.13-8.32,60.98-25.16C1037,584.52,1045.32,564.19,1045.32,540.38L1045.32,540.38z
		 M973.9,487.34h19.16v86.72h17.23v16.26H973.9V487.34L973.9,487.34z M959.38,498.38v91.94h-18.97v-27.68h-13.36v27.68h-19.16
		v-92.33l10.65-10.65h30.58L959.38,498.38L959.38,498.38z"/>
	<polygon class="st1" points="940.41,504.76 927.05,504.76 927.05,545.41 940.41,545.41 940.41,504.76 	"/>
</g>
</svg>
